<svg xmlns="http://www.w3.org/2000/svg" xmlns:svg="http://www.w3.org/2000/svg" id="svg7416" width="85.333" height="85.333" version="1.1" viewBox="0 0 85.333 85.333" xml:space="preserve"><metadata id="metadata7422"/><defs id="defs7420"><clipPath id="clipPath7432" clipPathUnits="userSpaceOnUse"><path id="path7430" d="M 0,64 H 64 V 0 H 0 Z"/></clipPath><clipPath id="clipPath7444" clipPathUnits="userSpaceOnUse"><path id="path7442" d="m 48.212,64 c 0,0 -23.175,-40.142 -25.66,-44.449 v 0 C 19.066,13.503 12.165,10.859 12.165,10.859 v 0 L 10.661,8.254 24.963,0 26.467,2.605 c 0,0 -1.165,7.299 2.327,13.345 v 0 c 1.131,1.961 22.189,38.436 22.189,38.436 v 0 L 51,62.39 Z"/></clipPath><clipPath id="clipPath7464" clipPathUnits="userSpaceOnUse"><path id="path7462" d="M 10.6611,64 H 53.0889 V 0 H 10.6611 Z"/></clipPath><clipPath id="clipPath7480" clipPathUnits="userSpaceOnUse"><path id="path7478" d="M 0,64 H 64 V 0 H 0 Z"/></clipPath><clipPath id="clipPath7492" clipPathUnits="userSpaceOnUse"><path id="path7490" d="M 28.4126,51.3354 H 44.2734 V 22 H 28.4126 Z"/></clipPath></defs><g id="g7424" transform="matrix(1.3333333,0,0,-1.3333333,0,85.333333)"><g id="g7426"><g id="g7428" clip-path="url(#clipPath7432)"><g id="g7434" transform="translate(12.1655,10.8594)"><path style="fill:#47475e;fill-opacity:1;fill-rule:nonzero;stroke:none" id="path7436" d="m 0,0 -1.504,-2.605 14.301,-8.254 1.505,2.605 c 0,0 -1.166,7.299 2.326,13.345 1.131,1.961 22.19,38.436 22.19,38.436 l 0.016,8.004 -2.788,1.61 c 0,0 -23.174,-40.142 -25.66,-44.45 C 6.9,2.644 0,0 0,0"/></g></g></g><g id="g7438"><g id="g7440" clip-path="url(#clipPath7444)"><g id="g7446" transform="translate(10.8921,11.5947)"><path style="fill:#d1d5dd;fill-opacity:1;fill-rule:nonzero;stroke:none" id="path7448" d="m 0,0 -1.504,-4.605 15.575,-6.99 2.685,1.924 z"/></g><g id="g7450" transform="translate(22.7827,22.8916)"><path style="fill:#d1d5dd;fill-opacity:1;fill-rule:nonzero;stroke:none" id="path7452" d="m 0,0 -1.504,-2.605 8.695,-5.018 1.504,2.605 z"/></g><g id="g7454" transform="translate(42.5723,57.1689)"><path style="fill:#d1d5dd;fill-opacity:1;fill-rule:nonzero;stroke:none" id="path7456" d="m 0,0 -1.504,-2.605 8.695,-5.018 1.504,2.605 z"/></g><g id="g7458"><g id="g7472"><g id="g7470" clip-path="url(#clipPath7464)" style="opacity:.30000299"><g id="g7468" transform="translate(10.6611)"><path style="fill:#fff;fill-opacity:1;fill-rule:nonzero;stroke:none" id="path7466" d="M 0,0 H 5.477 L 42.428,64 H 0 Z"/></g></g></g></g></g></g><g id="g7474"><g id="g7476" clip-path="url(#clipPath7480)"><g id="g7482" transform="translate(44.1396,40.5005)"><path style="fill:#d1d5dd;fill-opacity:1;fill-rule:nonzero;stroke:none" id="path7484" d="m 0,0 c 0.276,0.479 0.112,1.09 -0.366,1.366 l -2.585,1.492 2.808,4.865 c 0.133,0.23 0.168,0.503 0.1,0.759 -0.068,0.256 -0.236,0.475 -0.466,0.607 L -3.3,10.7 C -3.778,10.977 -4.39,10.813 -4.666,10.334 -4.942,9.855 -4.778,9.244 -4.3,8.968 L -2.375,7.857 -5.184,2.992 C -5.316,2.763 -5.352,2.49 -5.283,2.233 -5.215,1.977 -5.047,1.759 -4.817,1.626 l 3.451,-1.992 C -1.209,-0.457 -1.037,-0.5 -0.867,-0.5 -0.521,-0.5 -0.186,-0.321 0,0 m -11.277,-18.5 c -0.169,0 -0.341,0.042 -0.499,0.133 l -3.451,1.992 c -0.23,0.133 -0.398,0.352 -0.466,0.608 -0.069,0.256 -0.033,0.529 0.1,0.759 l 6.433,11.142 -1.925,1.111 c -0.478,0.276 -0.642,0.888 -0.366,1.366 0.276,0.479 0.888,0.643 1.366,0.367 l 2.791,-1.611 c 0.23,-0.133 0.398,-0.351 0.466,-0.608 0.068,-0.256 0.033,-0.529 -0.1,-0.759 l -6.433,-11.142 2.585,-1.492 c 0.478,-0.277 0.642,-0.888 0.366,-1.366 -0.185,-0.321 -0.522,-0.5 -0.867,-0.5"/></g><g id="g7486"><g id="g7500"><g id="g7498" clip-path="url(#clipPath7492)" style="opacity:.30000299"><g id="g7496" transform="translate(44.1396,40.5005)"><path style="fill:#47475e;fill-opacity:1;fill-rule:nonzero;stroke:none" id="path7494" d="m 0,0 c 0.276,0.479 0.112,1.09 -0.366,1.366 l -2.585,1.492 2.808,4.865 c 0.133,0.23 0.168,0.503 0.1,0.759 -0.068,0.256 -0.236,0.475 -0.466,0.607 L -3.3,10.7 C -3.778,10.977 -4.39,10.813 -4.666,10.334 -4.942,9.855 -4.778,9.244 -4.3,8.968 L -2.375,7.857 -5.184,2.992 C -5.316,2.763 -5.352,2.49 -5.283,2.233 -5.215,1.977 -5.047,1.759 -4.817,1.626 l 3.451,-1.992 C -1.209,-0.457 -1.037,-0.5 -0.867,-0.5 -0.521,-0.5 -0.186,-0.321 0,0 m -11.277,-18.5 c -0.169,0 -0.341,0.042 -0.499,0.133 l -3.451,1.992 c -0.23,0.133 -0.398,0.352 -0.466,0.608 -0.069,0.256 -0.033,0.529 0.1,0.759 l 6.433,11.142 -1.925,1.111 c -0.478,0.276 -0.642,0.888 -0.366,1.366 0.276,0.479 0.888,0.643 1.366,0.367 l 2.791,-1.611 c 0.23,-0.133 0.398,-0.351 0.466,-0.608 0.068,-0.256 0.033,-0.529 -0.1,-0.759 l -6.433,-11.142 2.585,-1.492 c 0.478,-0.277 0.642,-0.888 0.366,-1.366 -0.185,-0.321 -0.522,-0.5 -0.867,-0.5"/></g></g></g></g><g id="g7502" transform="translate(44.8496,47.7314)"><path style="fill:#d1d5dd;fill-opacity:1;fill-rule:nonzero;stroke:none" id="path7504" d="M 0,0 C -0.551,-0.956 -0.225,-2.179 0.732,-2.731 1.689,-3.284 2.914,-2.956 3.465,-1.999 4.018,-1.043 3.689,0.181 2.732,0.732 1.775,1.285 0.553,0.957 0,0 m -3.309,-5.731 c -0.55,-0.957 -0.224,-2.179 0.733,-2.732 0.957,-0.553 2.181,-0.225 2.732,0.733 0.553,0.956 0.225,2.179 -0.732,2.731 -0.957,0.553 -2.18,0.225 -2.733,-0.732 m -3.462,-6 c -0.553,-0.957 -0.225,-2.179 0.732,-2.732 0.955,-0.553 2.18,-0.225 2.73,0.733 0.555,0.956 0.225,2.179 -0.73,2.731 -0.957,0.553 -2.18,0.225 -2.732,-0.732 m -3.465,-6 c -0.551,-0.957 -0.225,-2.179 0.732,-2.732 0.957,-0.553 2.182,-0.225 2.733,0.733 0.552,0.956 0.224,2.179 -0.733,2.731 -0.957,0.553 -2.18,0.225 -2.732,-0.732 m -0.75,-5.268 c 0.957,-0.552 1.285,-1.775 0.732,-2.731 -0.551,-0.958 -1.776,-1.286 -2.732,-0.733 -0.956,0.553 -1.284,1.775 -0.732,2.732 0.553,0.957 1.775,1.285 2.732,0.732"/></g></g></g></g></svg>