<svg xmlns="http://www.w3.org/2000/svg" xmlns:svg="http://www.w3.org/2000/svg" id="svg4504" width="85.333" height="85.333" version="1.1" viewBox="0 0 85.333 85.333" xml:space="preserve"><metadata id="metadata4510"/><defs id="defs4508"><clipPath id="clipPath4520" clipPathUnits="userSpaceOnUse"><path id="path4518" d="M 0,64 H 64 V 0 H 0 Z"/></clipPath><clipPath id="clipPath4532" clipPathUnits="userSpaceOnUse"><path id="path4530" d="M 47.732,64 C 41.639,60.483 38.808,59.152 35.5,46.814 v 0 L 10.98,4.343 c 0,0 0.624,-1.514 3.398,-3.115 v 0 C 15.59,0.528 16.582,0.175 17.316,0 v 0 h 1.549 l 24.429,42.314 c 9.033,9.033 8.769,12.15 8.768,19.186 v 0 z"/></clipPath><clipPath id="clipPath4540" clipPathUnits="userSpaceOnUse"><path id="path4538" d="M 31.2686,66 H 55.5264 V 36.9834 H 31.2686 Z"/></clipPath><clipPath id="clipPath4556" clipPathUnits="userSpaceOnUse"><path id="path4554" d="m 38.6475,48.8447 h 4.665 v -3.7505 h -4.665 z"/></clipPath><clipPath id="clipPath4572" clipPathUnits="userSpaceOnUse"><path id="path4570" d="M 11.0625,64 H 53.5059 V 0 H 11.0625 Z"/></clipPath><clipPath id="clipPath4588" clipPathUnits="userSpaceOnUse"><path id="path4586" d="M 0,64 H 64 V 0 H 0 Z"/></clipPath><clipPath id="clipPath4596" clipPathUnits="userSpaceOnUse"><path id="path4594" d="m 17.0762,38 h 19.167 V 6.99902 h -19.167 z"/></clipPath></defs><g id="g4512" transform="matrix(1.3333333,0,0,-1.3333333,0,85.333333)"><g id="g4514"><g id="g4516" clip-path="url(#clipPath4520)"><g id="g4522" transform="translate(14.3774,1.2275)"><path style="fill:#e0a30a;fill-opacity:1;fill-rule:nonzero;stroke:none" id="path4524" d="m 0,0 c 2.774,-1.602 4.397,-1.384 4.397,-1.384 l 24.52,42.47 c 9.033,9.034 8.769,12.15 8.768,19.186 l -4.33,2.5 C 27.262,59.255 24.43,57.925 21.123,45.586 L -3.397,3.116 c 0,0 0.624,-1.514 3.397,-3.116"/></g></g></g><g id="g4526"><g id="g4528" clip-path="url(#clipPath4532)"><g id="g4534"><g id="g4548"><g id="g4546" clip-path="url(#clipPath4540)" style="opacity:.14999402"><g id="g4544" transform="translate(55.5264,59.5)"><path style="fill:#7d1cc7;fill-opacity:1;fill-rule:nonzero;stroke:none" id="path4542" d="m 0,0 -11.258,6.5 -13,-22.517 11.258,-6.5 z"/></g></g></g></g><g id="g4550"><g id="g4564"><g id="g4562" clip-path="url(#clipPath4556)" style="opacity:.5"><g id="g4560" transform="translate(43.3125,46.3447)"><path style="fill:#231f20;fill-opacity:1;fill-rule:nonzero;stroke:none" id="path4558" d="M 0,0 C -0.69,-1.196 -2.219,-1.605 -3.415,-0.915 -4.61,-0.225 -5.021,1.304 -4.33,2.5 Z"/></g></g></g></g><g id="g4566"><g id="g4580"><g id="g4578" clip-path="url(#clipPath4572)" style="opacity:.30000299"><g id="g4576" transform="translate(11.0625)"><path style="fill:#fff;fill-opacity:1;fill-rule:nonzero;stroke:none" id="path4574" d="M 0,0 V 64 H 42.443 C 42.443,64 42.275,62.236 41,61.5 33.747,57.312 32.635,55.01 28.786,48.345 24.938,41.679 0.875,0 0.875,0 Z"/></g></g></g></g></g></g><g id="g4582"><g id="g4584" clip-path="url(#clipPath4588)"><g id="g4590"><g id="g4604"><g id="g4602" clip-path="url(#clipPath4596)" style="opacity:.30000299"><g id="g4600" transform="translate(19.3262,9.7988)"><path style="fill:#231f20;fill-opacity:1;fill-rule:nonzero;stroke:none" id="path4598" d="M 0,0 C -0.717,0.414 -1.635,0.168 -2.049,-0.55 -2.463,-1.267 -2.217,-2.185 -1.5,-2.599 -0.782,-3.013 0.135,-2.767 0.549,-2.05 0.963,-1.332 0.718,-0.414 0,0 M 4.042,7 C 3.325,7.414 2.407,7.168 1.993,6.451 1.579,5.733 1.825,4.816 2.542,4.402 3.26,3.988 4.177,4.233 4.591,4.951 5.005,5.668 4.76,6.586 4.042,7 m 4.041,7 C 7.366,14.414 6.448,14.168 6.034,13.45 5.62,12.733 5.866,11.815 6.583,11.401 7.301,10.987 8.218,11.233 8.632,11.95 9.046,12.668 8.801,13.586 8.083,14 m 4.042,7 c -0.717,0.414 -1.635,0.168 -2.049,-0.549 -0.414,-0.718 -0.168,-1.635 0.549,-2.049 0.718,-0.414 1.635,-0.169 2.049,0.549 0.414,0.717 0.169,1.635 -0.549,2.049 m 4.59,4.951 c -0.414,-0.718 -1.33,-0.963 -2.049,-0.549 -0.717,0.414 -0.963,1.331 -0.549,2.049 0.414,0.717 1.332,0.963 2.049,0.549 0.719,-0.414 0.965,-1.332 0.549,-2.049"/></g></g></g></g></g></g></g></svg>