<svg xmlns="http://www.w3.org/2000/svg" xmlns:svg="http://www.w3.org/2000/svg" id="svg8742" width="85.333" height="85.333" version="1.1" viewBox="0 0 85.333 85.333" xml:space="preserve"><metadata id="metadata8748"/><defs id="defs8746"><clipPath id="clipPath8758" clipPathUnits="userSpaceOnUse"><path id="path8756" d="M 0,64 H 64 V 0 H 0 Z"/></clipPath><clipPath id="clipPath8770" clipPathUnits="userSpaceOnUse"><path id="path8768" d="M 36.45,50.93 C 31.96,43.152 22.639,27.01 15.63,14.869 v 0 C 15.214,14.15 14.72,13.661 14.04,14.054 v 0 c -0.681,0.395 -0.556,1.098 -0.142,1.815 v 0 c 1.041,1.805 0.229,0.444 2.229,3.908 v 0 C 18.857,24.504 23.787,33 23.787,33 v 0 H 3.622 c 0,0 2,-2.999 2,-5 v 0 c 0,-1.562 -0.011,-2.439 -1.887,-5.686 v 0 C 2.675,20.477 3.255,21.435 2.256,19.703 v 0 C -1.058,13.964 0.858,6.655 6.306,3.509 v 0 c 5.45,-3.146 12.553,-1.044 15.848,4.707 v 0 c 3.48,6.073 23.378,40.444 24.878,43.043 v 0 c 0.357,0.613 0.799,0.481 1.58,-0.872 v 0 c 0.873,-1.512 2.206,-2.262 3.763,-2.262 v 0 c 0.999,0 3.065,-10e-4 6.043,0 v 0 c 2.976,0 4.976,3.999 4.976,3.999 v 0 H 52.227 C 49.984,56.008 49.166,58 45.166,58 v 0 C 41.25,58 38.908,55.188 36.45,50.93"/></clipPath><clipPath id="clipPath8778" clipPathUnits="userSpaceOnUse"><path id="path8776" d="M 8.22803,62 H 55.2783 V 2.04785 H 8.22803 Z"/></clipPath><clipPath id="clipPath8798" clipPathUnits="userSpaceOnUse"><path id="path8796" d="M 3,33 H 24 V 29 H 3 Z"/></clipPath><clipPath id="clipPath8814" clipPathUnits="userSpaceOnUse"><path id="path8812" d="M 8,46.3931 H 43.7734 V 9 H 8 Z"/></clipPath><clipPath id="clipPath8830" clipPathUnits="userSpaceOnUse"><path id="path8828" d="M 0,64 H 64 V 0 H 0 Z"/></clipPath><clipPath id="clipPath8850" clipPathUnits="userSpaceOnUse"><path id="path8848" d="M 6.93115,14 H 12.9321 V 7.99902 H 6.93115 Z"/></clipPath></defs><g id="g8750" transform="matrix(1.3333333,0,0,-1.3333333,0,85.333333)"><g id="g8752"><g id="g8754" clip-path="url(#clipPath8758)"><g id="g8760" transform="translate(2.2559,19.7031)"><path style="fill:#e0a30a;fill-opacity:1;fill-rule:evenodd;stroke:none" id="path8762" d="m 0,0 c -3.314,-5.738 -1.398,-13.049 4.05,-16.194 5.45,-3.147 12.554,-1.044 15.848,4.707 3.48,6.073 23.378,40.444 24.878,43.042 0.357,0.613 0.798,0.482 1.579,-0.871 0.874,-1.512 2.207,-2.263 3.764,-2.263 0.999,0 3.066,0 6.043,0 2.977,0 4.977,4 4.977,4 H 49.971 c -2.242,3.884 -3.061,5.876 -7.061,5.876 -3.916,0 -6.258,-2.812 -8.716,-7.07 -4.49,-7.778 -13.81,-23.92 -20.82,-36.061 -0.415,-0.72 -0.909,-1.208 -1.59,-0.814 -0.681,0.393 -0.556,1.096 -0.142,1.814 1.042,1.805 0.23,0.444 2.23,3.908 2.729,4.727 7.659,13.223 7.659,13.223 H 1.366 c 0,0 2,-2.999 2,-5 C 3.366,6.735 3.354,5.857 1.479,2.61 0.419,0.773 1,1.732 0,0"/></g></g></g><g id="g8764"><g id="g8766" clip-path="url(#clipPath8770)"><g id="g8772"><g id="g8786"><g id="g8784" clip-path="url(#clipPath8778)" style="opacity:.5"><g id="g8782" transform="translate(20.7056,2.0479)"><path style="fill:#f7c90b;fill-opacity:1;fill-rule:evenodd;stroke:none" id="path8780" d="m 0,0 c 6,0 25.855,48.367 27.419,51.077 1.566,2.711 4.018,1.864 6.727,0.299 2.711,-1.564 -8.041,18.038 -16.931,2.639 C 16.688,53.103 -5.076,12.821 -5.076,12.821 -10.196,3.952 -12.478,0 -12.478,0 Z"/></g></g></g></g><g id="g8788" transform="translate(63.3945,52.124)"><path style="fill:#93684e;fill-opacity:1;fill-rule:evenodd;stroke:none" id="path8790" d="m 0,0 h -8.71 l -2.31,-4 H 0 Z"/></g><g id="g8792"><g id="g8806"><g id="g8804" clip-path="url(#clipPath8798)" style="opacity:.5"><g id="g8802" transform="translate(22,29)"><path style="fill:#f7c90b;fill-opacity:1;fill-rule:nonzero;stroke:none" id="path8800" d="M 0,0 H -19 V 4 H 2 Z"/></g></g></g></g><g id="g8808"><g id="g8822"><g id="g8820" clip-path="url(#clipPath8814)" style="opacity:.30000299"><g id="g8818" transform="translate(43.2734,43.5674)"><path style="fill:#fff;fill-opacity:1;fill-rule:nonzero;stroke:none" id="path8816" d="m 0,0 -4.662,2.692 c -0.231,0.132 -0.504,0.169 -0.759,0.1 -0.256,-0.069 -0.475,-0.237 -0.607,-0.466 0,0 -18.379,-31.834 -18.847,-32.642 -0.803,-1.389 -2.297,-2.251 -3.898,-2.251 -2.482,0 -4.5,2.018 -4.5,4.5 0,0.791 0.208,1.569 0.601,2.249 l 3.178,5.5 c 0.276,0.478 0.112,1.089 -0.366,1.366 -0.478,0.275 -1.09,0.112 -1.366,-0.366 h -0.001 l -3.176,-5.498 c -0.57,-0.985 -0.87,-2.109 -0.87,-3.251 0,-3.584 2.916,-6.5 6.5,-6.5 2.222,0 4.301,1.149 5.489,3.017 l 3.264,-1.885 c 0.479,-0.275 1.09,-0.112 1.367,0.367 0.276,0.478 0.112,1.089 -0.367,1.366 l -3.259,1.882 c 1.531,2.651 4.859,8.415 8.24,14.271 l 3.267,-1.886 c 0.477,-0.276 1.088,-0.111 1.366,0.367 0.276,0.478 0.112,1.089 -0.366,1.366 l -3.267,1.886 c 3.561,6.167 6.99,12.106 8.243,14.275 L -1,-1.732 C -0.523,-2.007 0.089,-1.845 0.366,-1.366 0.643,-0.888 0.479,-0.276 0,0"/></g></g></g></g></g></g><g id="g8824"><g id="g8826" clip-path="url(#clipPath8830)"><g id="g8832" transform="translate(30.9736,17.499)"><path style="fill:#e0a30a;fill-opacity:1;fill-rule:evenodd;stroke:none" id="path8834" d="M 0,0 C -0.829,-1.435 -2.663,-1.927 -4.098,-1.098 -5.533,-0.27 -6.024,1.565 -5.196,3 -4.367,4.436 -2.533,4.927 -1.098,4.099 0.338,3.27 0.828,1.436 0,0"/></g><g id="g8836" transform="translate(26.3521,9.499)"><path style="fill:#e0a30a;fill-opacity:1;fill-rule:evenodd;stroke:none" id="path8838" d="M 0,0 C -0.829,-1.435 -2.663,-1.927 -4.098,-1.098 -5.533,-0.27 -6.024,1.565 -5.196,3 -4.367,4.436 -2.533,4.927 -1.098,4.099 0.338,3.27 0.828,1.436 0,0"/></g><g id="g8840" transform="translate(12.5298,9.499)"><path style="fill:#e0a30a;fill-opacity:1;fill-rule:evenodd;stroke:none" id="path8842" d="M 0,0 C -0.829,-1.435 -2.663,-1.927 -4.098,-1.098 -5.533,-0.27 -6.024,1.565 -5.196,3 -4.367,4.436 -2.533,4.927 -1.098,4.099 0.338,3.27 0.828,1.436 0,0"/></g><g id="g8844"><g id="g8858"><g id="g8856" clip-path="url(#clipPath8850)" style="opacity:.5"><g id="g8854" transform="translate(12.5298,9.499)"><path style="fill:#f7c90b;fill-opacity:1;fill-rule:evenodd;stroke:none" id="path8852" d="M 0,0 C -0.829,-1.435 -2.663,-1.927 -4.098,-1.098 -5.533,-0.27 -6.024,1.565 -5.196,3 -4.367,4.436 -2.533,4.927 -1.098,4.099 0.338,3.27 0.828,1.436 0,0"/></g></g></g></g><g id="g8860" transform="translate(35.5986,25.499)"><path style="fill:#e0a30a;fill-opacity:1;fill-rule:evenodd;stroke:none" id="path8862" d="M 0,0 C -0.828,-1.435 -2.663,-1.926 -4.098,-1.098 -5.533,-0.269 -6.024,1.565 -5.196,3 -4.367,4.436 -2.533,4.927 -1.098,4.099 0.337,3.27 0.829,1.436 0,0"/></g><g id="g8864" transform="translate(40.2275,33.501)"><path style="fill:#e0a30a;fill-opacity:1;fill-rule:evenodd;stroke:none" id="path8866" d="M 0,0 C -0.828,-1.436 -2.663,-1.927 -4.098,-1.099 -5.533,-0.27 -6.024,1.564 -5.196,3 -4.367,4.435 -2.533,4.926 -1.098,4.098 0.337,3.269 0.829,1.435 0,0"/></g><g id="g8868" transform="translate(44.8555,41.4995)"><path style="fill:#e0a30a;fill-opacity:1;fill-rule:evenodd;stroke:none" id="path8870" d="M 0,0 C -0.828,-1.435 -2.663,-1.927 -4.098,-1.098 -5.533,-0.27 -6.024,1.565 -5.196,3 -4.367,4.435 -2.533,4.927 -1.098,4.098 0.337,3.27 0.829,1.435 0,0"/></g></g></g></g></svg>