<svg xmlns="http://www.w3.org/2000/svg" xmlns:svg="http://www.w3.org/2000/svg" id="svg9415" width="85.333" height="85.333" version="1.1" viewBox="0 0 85.333 85.333" xml:space="preserve"><metadata id="metadata9421"/><defs id="defs9419"><clipPath id="clipPath9435" clipPathUnits="userSpaceOnUse"><path id="path9433" d="M 0,64 H 64 V 0 H 0 Z"/></clipPath><clipPath id="clipPath9451" clipPathUnits="userSpaceOnUse"><path id="path9449" d="M 28.288,29.989 C 22.235,19.489 14.754,12.029 7.498,12.029 v 0 c 2.042,-3.535 5,-6.622 8.8,-8.814 v 0 C 20.098,1.022 24.242,-0.001 28.338,0 v 0 c -3.628,6.28 -0.91,16.492 5.15,26.988 v 0 c 1.966,3.406 7.012,16.22 7.012,16.22 v 0 L 49.436,58.687 46,60.672 c 0,0 -13.397,-23.203 -17.712,-30.683"/></clipPath><clipPath id="clipPath9459" clipPathUnits="userSpaceOnUse"><path id="path9457" d="M 7.49756,16.2178 H 29.9946 V 0 H 7.49756 Z"/></clipPath><clipPath id="clipPath9475" clipPathUnits="userSpaceOnUse"><path id="path9473" d="M 0,64 H 64 V 0 H 0 Z"/></clipPath><clipPath id="clipPath9487" clipPathUnits="userSpaceOnUse"><path id="path9485" d="M 40.149,46.525 C 39.258,44.985 32.294,32.923 31.405,31.381 v 0 C 29.49,28.064 30.631,23.806 33.948,21.89 v 0 c 1.055,-0.61 2.255,-0.933 3.47,-0.933 v 0 c 2.477,0 4.785,1.332 6.022,3.476 v 0 l 8.744,15.143 c 0.929,1.607 1.174,3.479 0.694,5.272 v 0 c -0.482,1.795 -1.631,3.293 -3.239,4.22 v 0 C 48.584,49.677 47.386,50 46.172,50 v 0 c -2.478,0 -4.785,-1.331 -6.023,-3.475 M 35.947,25.354 c -1.406,0.813 -1.89,2.621 -1.078,4.029 v 0 c 0.889,1.541 7.85,13.598 8.743,15.141 v 0 C 44.139,45.435 45.119,46 46.172,46 v 0 c 0.519,0 1.012,-0.133 1.468,-0.396 v 0 c 0.682,-0.394 1.171,-1.031 1.375,-1.791 v 0 c 0.203,-0.762 0.099,-1.555 -0.294,-2.236 v 0 L 39.976,26.434 c -0.531,-0.923 -1.559,-1.457 -2.597,-1.457 v 0 c -0.493,0 -0.987,0.12 -1.432,0.377"/></clipPath><clipPath id="clipPath9495" clipPathUnits="userSpaceOnUse"><path id="path9493" d="M 26.8022,60.6714 H 51.1357 V 20.5859 H 26.8022 Z"/></clipPath><clipPath id="clipPath9511" clipPathUnits="userSpaceOnUse"><path id="path9509" d="M 0,64 H 64 V 0 H 0 Z"/></clipPath><clipPath id="clipPath9519" clipPathUnits="userSpaceOnUse"><path id="path9517" d="M 33.0537,41.7119 H 51.9805 V 28.4756 H 33.0537 Z"/></clipPath><clipPath id="clipPath9539" clipPathUnits="userSpaceOnUse"><path id="path9537" d="m 29.3613,45.9082 h 6.4873 V 35.4785 h -6.4873 z"/></clipPath></defs><g id="g9423" transform="matrix(1.3333333,0,0,-1.3333333,0,85.333333)"><g id="g9425" transform="translate(31.0552,34.7837)"><path style="fill:#e0a30a;fill-opacity:1;fill-rule:nonzero;stroke:none" id="path9427" d="M 0,0 16.925,-9.772 22.924,0.62 5.999,10.393 Z"/></g><g id="g9429"><g id="g9431" clip-path="url(#clipPath9435)"><g id="g9437" transform="translate(52.3203,60.3525)"><path style="fill:#93684e;fill-opacity:1;fill-rule:nonzero;stroke:none" id="path9439" d="M 0,0 C -0.62,1.071 -1.517,2.008 -2.67,2.672 -3.821,3.337 -5.079,3.647 -6.32,3.647 V -3.65 Z"/></g><g id="g9441" transform="translate(7.4976,12.0283)"><path style="fill:#e0a30a;fill-opacity:1;fill-rule:nonzero;stroke:none" id="path9443" d="m 0,0 c 2.042,-3.534 5.001,-6.621 8.801,-8.813 3.8,-2.193 7.944,-3.216 12.04,-3.215 -3.628,6.28 -0.911,16.491 5.15,26.988 1.966,3.405 7.011,16.22 7.011,16.22 l 8.937,15.479 -3.437,1.984 c 0,0 -13.397,-23.203 -17.712,-30.682 C 14.738,7.46 7.256,0.001 0,0"/></g></g></g><g id="g9445"><g id="g9447" clip-path="url(#clipPath9451)"><g id="g9453"><g id="g9467"><g id="g9465" clip-path="url(#clipPath9459)" style="opacity:.5"><g id="g9463" transform="translate(29.9946,5.3174)"><path style="fill:#f7c90b;fill-opacity:1;fill-rule:nonzero;stroke:none" id="path9461" d="M 0,0 C -3.712,0 -7.467,0.927 -10.911,2.914 -14.354,4.9 -17.035,7.698 -18.886,10.9 L -22.497,6.711 V -5.317 h 20.841 z"/></g></g></g></g></g></g><g id="g9469"><g id="g9471" clip-path="url(#clipPath9475)"><g id="g9477" transform="translate(48.7207,41.5771)"><path style="fill:#e0a30a;fill-opacity:1;fill-rule:nonzero;stroke:none" id="path9479" d="m 0,0 -8.744,-15.144 c -0.784,-1.36 -2.649,-1.877 -4.029,-1.08 -1.407,0.814 -1.891,2.621 -1.079,4.03 0.889,1.541 7.851,13.598 8.744,15.141 0.526,0.91 1.506,1.476 2.559,1.476 0.52,0 1.013,-0.133 1.468,-0.396 C -0.398,3.633 0.09,2.997 0.294,2.236 0.498,1.475 0.394,0.681 0,0 m 4.157,3.271 c -0.481,1.794 -1.631,3.292 -3.239,4.22 -1.055,0.61 -2.253,0.932 -3.467,0.932 -2.477,0 -4.784,-1.331 -6.022,-3.475 -0.892,-1.541 -7.856,-13.602 -8.745,-15.144 -1.914,-3.318 -0.774,-7.575 2.544,-9.492 1.054,-0.61 2.254,-0.932 3.469,-0.932 2.478,0 4.785,1.332 6.023,3.476 l 8.743,15.143 c 0.929,1.607 1.175,3.479 0.694,5.272"/></g></g></g><g id="g9481"><g id="g9483" clip-path="url(#clipPath9487)"><g id="g9489"><g id="g9503"><g id="g9501" clip-path="url(#clipPath9495)" style="opacity:.5"><g id="g9499" transform="translate(41.5625,20.957)"><path style="fill:#f7c90b;fill-opacity:1;fill-rule:nonzero;stroke:none" id="path9497" d="m 0,0 9.573,16.088 -4.635,2.677 c 0,0 -2.471,1.453 -4.236,2.47 -0.928,0.535 -1.019,2.307 -0.468,3.263 l 7.64,13.232 -3.436,1.984 c 0,0 -13.397,-23.202 -17.713,-30.682 C -16.4,3.61 -14.254,0.89 -10,0 -6.016,-0.834 0,0 0,0"/></g></g></g></g></g></g><g id="g9505"><g id="g9507" clip-path="url(#clipPath9511)"><g id="g9513"><g id="g9527"><g id="g9525" clip-path="url(#clipPath9519)" style="opacity:.30000299"><g id="g9523" transform="translate(46.8262,30.2969)"><path style="fill:#fff;fill-opacity:1;fill-rule:nonzero;stroke:none" id="path9521" d="m 0,0 3.154,-1.821 2,3.464 L 2,3.464 Z M -11.772,11.415 -1.464,5.464 -3.464,2 -13.772,7.951 Z"/></g></g></g></g><g id="g9529" transform="translate(33.6777,44.8164)"><path style="fill:#e0a30a;fill-opacity:1;fill-rule:nonzero;stroke:none" id="path9531" d="M 0,0 C -0.805,-1.401 0.172,-2.41 0.172,-2.41 L 2.171,1.055 C 2.171,1.055 0.809,1.398 0,0 m -1.999,-3.465 c -0.805,-1.399 0.172,-2.409 0.172,-2.409 l 1.999,3.464 c 0,0 -1.362,0.344 -2.171,-1.055 m 0.172,-2.409 -1.999,-3.464 c 0,0 -0.977,1.009 -0.172,2.408 0.811,1.399 2.171,1.056 2.171,1.056"/></g><g id="g9533"><g id="g9547"><g id="g9545" clip-path="url(#clipPath9539)" style="opacity:.5"><g id="g9543" transform="translate(33.6777,44.8164)"><path style="fill:#f7c90b;fill-opacity:1;fill-rule:nonzero;stroke:none" id="path9541" d="M 0,0 C -0.805,-1.401 0.172,-2.41 0.172,-2.41 L 2.171,1.055 C 2.171,1.055 0.809,1.398 0,0 m -1.999,-3.465 c -0.805,-1.399 0.172,-2.409 0.172,-2.409 l 1.999,3.464 c 0,0 -1.362,0.344 -2.171,-1.055 m 0.172,-2.409 -1.999,-3.464 c 0,0 -0.977,1.009 -0.172,2.408 0.811,1.399 2.171,1.056 2.171,1.056"/></g></g></g></g></g></g></g></svg>